<svg width="322" height="24" viewBox="0 0 322 24" fill="none" xmlns="http://www.w3.org/2000/svg">
<path d="M11.187 0.75C17.3666 0.75 22.3739 5.75739 22.3739 11.937C22.3739 18.1166 17.3666 23.1239 11.187 23.1239C5.00739 23.1239 0 18.1166 0 11.937C0 5.75739 5.00739 0.75 11.187 0.75Z" fill="black"/>
<path d="M22.3739 10.5561V11.937C22.3739 18.1166 17.3666 23.1239 11.187 23.1239C5.00739 23.1239 0 18.1166 0 11.937C0 11.3606 0.0437751 10.7944 0.126461 10.2424C0.943597 4.86778 5.58376 0.75 11.187 0.75C16.7902 0.75 21.5714 4.99424 22.2815 10.4904L22.3739 10.5561Z" fill="#3B1082"/>
<path d="M14.4488 8.86065C14.7844 8.93361 15.1103 8.99684 15.4289 9.07953C15.7669 9.16465 16.1049 9.27165 16.4406 9.36407C16.4892 9.37866 16.5062 9.39568 16.5062 9.44919C16.5062 10.4998 16.5159 11.5504 16.5014 12.5986C16.4868 13.727 16.1293 14.7484 15.4435 15.6434C14.6798 16.6429 13.6779 17.2874 12.4546 17.5816C11.9731 17.6984 11.4794 17.7348 10.9857 17.7057C9.80863 17.6351 8.76776 17.2217 7.87766 16.4532C6.95839 15.6628 6.37958 14.6657 6.14612 13.4741C6.08045 13.136 6.0537 12.7907 6.0537 12.4453C6.0537 11.4507 6.0537 10.4584 6.05127 9.46378C6.05127 9.39812 6.07316 9.37379 6.13396 9.35677C6.77599 9.15249 7.42775 8.98955 8.08924 8.87038C8.09654 8.87038 8.1014 8.87038 8.116 8.87038V8.9482C8.116 10.1958 8.11113 11.4434 8.11843 12.691C8.12329 13.3208 8.20841 13.941 8.42242 14.5368C8.59266 15.0111 8.84315 15.4318 9.21767 15.7747C9.56787 16.0933 9.9813 16.2951 10.4409 16.3948C11.0927 16.5359 11.7445 16.5237 12.3841 16.3219C13.1404 16.0835 13.6633 15.5826 13.9989 14.8749C14.1788 14.4979 14.2883 14.0966 14.3539 13.6856C14.4293 13.2284 14.4488 12.7664 14.4488 12.3019V8.9628C14.4488 8.93361 14.4488 8.90686 14.4488 8.86065Z" fill="white"/>
<path d="M12.1992 11.1717H10.3631V6.87684C10.5552 6.81604 11.8344 6.81117 12.1992 6.87197V11.1717Z" fill="white"/>
<path d="M22.2815 10.4904L14.1567 4.74849C12.4592 3.54711 10.1974 3.51792 8.46833 4.6731L0.126461 10.2424C0.943597 4.86778 5.58376 0.75 11.187 0.75C16.7902 0.75 21.5714 4.99424 22.2815 10.4904Z" fill="#ABABAB"/>
<path d="M58.0667 12.1929C58.0667 13.6306 57.2527 14.297 56.0435 14.297C54.8344 14.297 54.0489 13.6449 54.0489 12.1929V7.44205H51.4402V12.2834C51.4402 15.4395 54.0775 16.6725 56.0625 16.6725C58.0476 16.6725 60.6897 15.4348 60.6897 12.2834V7.44205H58.081L58.0667 12.1929Z" fill="#3B1082"/>
<path d="M49.2335 9.64612V7.44205H40.7505V9.64612H45.7727L40.5505 14.3018V16.5059H49.5525V14.3018H44.0209L49.2335 9.64612Z" fill="#3B1082"/>
<path d="M73.753 7.27136C72.1012 7.27136 70.8539 7.94258 70.2351 8.96607C69.6067 7.94258 68.2405 7.27136 66.8219 7.27136C64.0323 7.27136 62.5804 9.047 62.5804 11.2463V16.5113H65.1891V11.6176C65.1891 10.5656 65.7413 9.64205 67.0075 9.64205C67.2646 9.62777 67.5217 9.66585 67.7644 9.7563C68.0072 9.84675 68.2262 9.98956 68.4071 10.1752C68.588 10.3561 68.7308 10.5798 68.8213 10.8226C68.9117 11.0654 68.9498 11.3225 68.9355 11.5795V16.5113H71.5442V11.5748C71.5442 10.5227 72.1631 9.63729 73.415 9.63729C74.667 9.63729 75.2716 10.5608 75.2716 11.6129V16.5066H77.8803V11.2511C77.8803 9.05652 76.5331 7.27612 73.7292 7.27612H73.753V7.27136Z" fill="#3B1082"/>
<path d="M36.221 12.1929C36.221 13.6306 35.407 14.297 34.2074 14.297C33.0077 14.297 32.2032 13.6448 32.2032 12.1929V7.44202H29.5945V12.2834C29.5945 15.4395 32.2223 16.6725 34.2169 16.6725C36.2115 16.6725 38.8345 15.4347 38.8345 12.2834V7.44202H36.2258V12.1929H36.221Z" fill="#3B1082"/>
<path d="M114.003 10.3845C114.003 8.45178 112.561 7.48066 109.671 7.49018C107.682 7.49018 105.368 8.02811 105.368 10.1608C105.368 11.2842 106.044 12.1744 107.034 12.4839C108.053 12.798 109.076 12.9504 110.124 13.0313C110.709 13.0741 111.799 13.2455 111.799 13.8929C111.79 14.488 111.114 14.7831 109.781 14.7831C108.448 14.7831 107.81 14.4785 107.81 13.6787V13.4074H105.197V13.6787C105.197 15.6781 106.72 16.673 109.781 16.673C112.861 16.6825 114.408 15.7352 114.408 13.8644C114.408 12.441 113.399 11.5794 112.137 11.3271C110.923 11.0748 109.652 11.0462 108.643 10.7891C108.2 10.6701 107.977 10.4274 107.977 10.1751C107.977 9.63713 108.519 9.36578 109.614 9.36578C110.709 9.36578 111.39 9.51812 111.39 10.3845H114.003Z" fill="#3B1082"/>
<path d="M150.695 10.3845C150.695 8.45178 149.252 7.48066 146.363 7.49018C144.373 7.49018 142.059 8.02811 142.059 10.1608C142.059 11.2842 142.735 12.1744 143.726 12.4839C144.744 12.798 145.768 12.9504 146.815 13.0313C147.401 13.0741 148.491 13.2455 148.491 13.8929C148.481 14.488 147.805 14.7831 146.472 14.7831C145.139 14.7831 144.502 14.4785 144.502 13.6787V13.4074H141.888V13.6787C141.888 15.6781 143.411 16.673 146.472 16.673C149.552 16.6825 151.099 15.7352 151.099 13.8644C151.099 12.441 150.09 11.5794 148.829 11.3271C147.615 11.0748 146.344 11.0462 145.335 10.7891C144.892 10.6701 144.668 10.4274 144.668 10.1751C144.668 9.63713 145.211 9.36578 146.306 9.36578C147.401 9.36578 148.081 9.51812 148.081 10.3845H150.695Z" fill="#3B1082"/>
<path d="M160.877 10.3845C160.877 8.45178 159.435 7.48066 156.545 7.49018C154.555 7.49018 152.242 8.02811 152.242 10.1608C152.242 11.2842 152.918 12.1744 153.908 12.4839C154.926 12.798 155.95 12.9504 156.997 13.0313C157.583 13.0741 158.673 13.2455 158.673 13.8929C158.663 14.488 157.987 14.7831 156.654 14.7831C155.322 14.7831 154.684 14.4785 154.684 13.6787V13.4074H152.07V13.6787C152.07 15.6781 153.594 16.673 156.654 16.673C159.734 16.6825 161.282 15.7352 161.282 13.8644C161.282 12.441 160.272 11.5794 159.011 11.3271C157.797 11.0748 156.526 11.0462 155.517 10.7891C155.074 10.6701 154.85 10.4274 154.85 10.1751C154.85 9.63713 155.393 9.36578 156.488 9.36578C157.583 9.36578 158.263 9.51812 158.263 10.3845H160.877Z" fill="#3B1082"/>
<path d="M118.562 7.6517H116.025V16.468H118.562V7.6517Z" fill="#3B1082"/>
<path d="M101.603 12.3076C101.603 13.7024 100.812 14.3545 99.6365 14.3545C98.4607 14.3545 97.6943 13.7024 97.6943 12.3076V7.68521H95.1522V12.398C95.1522 15.4637 97.7038 16.6729 99.646 16.6729C101.588 16.6729 104.14 15.459 104.14 12.398V7.68521H101.598V12.3076H101.603Z" fill="#3B1082"/>
<path d="M88.834 9.68534C87.3869 9.68534 86.3062 10.6755 86.3062 12.0751C86.3062 13.4746 87.3869 14.4315 88.834 14.4315C90.2812 14.4315 91.3999 13.4603 91.3999 12.0751C91.3999 10.6898 90.3193 9.68534 88.834 9.68534ZM88.8578 16.6736C85.8207 16.6736 83.6595 15.236 83.6595 11.7418V4.92017H86.1777V8.5714C86.9108 7.84782 87.8772 7.50031 89.2672 7.50031C92.2948 7.50031 93.9895 9.57109 93.9895 12.0751C93.9895 15.0646 91.6617 16.6736 88.8626 16.6736" fill="#3B1082"/>
<path d="M127.017 11.8409C127.017 10.4461 126.222 9.79391 125.051 9.79391C123.88 9.79391 123.109 10.4461 123.109 11.8409V16.4585H120.562V11.7504C120.562 8.67997 123.118 7.47559 125.06 7.47559C127.003 7.47559 129.554 8.67997 129.554 11.7504V16.4585H127.012V11.8409H127.017Z" fill="#3B1082"/>
<path d="M133.898 11.0887H137.992C137.992 10.3746 137.583 9.35591 135.96 9.35591C134.336 9.35591 133.898 10.3746 133.898 11.0887ZM133.865 12.6454C133.865 13.6165 134.374 14.5876 135.993 14.5876C137.483 14.5876 137.702 13.6974 137.702 13.6974H140.491C140.491 13.6974 140.23 16.5632 135.998 16.5632C133.046 16.5632 131.194 14.9113 131.194 11.9646C131.194 9.01792 133.046 7.38034 135.964 7.38034C138.882 7.38034 140.706 9.01792 140.706 11.9646C140.706 12.2883 140.658 12.6454 140.658 12.6454H133.865Z" fill="#3B1082"/>
<path d="M172.529 0H173.432V24H172.529V0Z" fill="#3B1082"/>
<path d="M196.561 4.125L190.054 19.8668H193.868L200.375 4.125H196.561Z" fill="#FDD521"/>
<path d="M191.244 4.125L184.738 19.8668H188.551L195.057 4.125H191.244Z" fill="#FDD521"/>
<path d="M189.74 4.125H184.685V16.3546L189.74 4.125Z" fill="#FDD521"/>
<path d="M195.372 19.8668H200.427V7.63678L195.372 19.8668Z" fill="#FDD521"/>
<path d="M211.906 13.1464L215.793 8.14531H213.234L209.64 12.6388V8.14531H206.632V19.8663H209.64V15.1978L212.805 19.8663H216.282L211.906 13.1464Z" fill="black"/>
<path d="M225.777 19.8668H229.352L224.624 8.14574H222.241L217.22 19.8668H219.272L220.483 16.8778H224.644L225.777 19.8668ZM224.019 15.2763H221.147L222.632 11.5838L224.019 15.2763Z" fill="black"/>
<path d="M236.531 11.8766C236.531 13.4591 235.3 14.4555 233.913 14.4555H233.542V9.63033H233.913C235.3 9.63033 236.531 10.2941 236.531 11.8766ZM235.457 8.14531H230.514V19.8663H233.542V15.959H235.457C237.84 15.959 239.95 14.4939 239.95 11.9154C239.95 9.31676 237.821 8.14531 235.457 8.14531Z" fill="black"/>
<path d="M241.317 19.8663H244.345V8.14531H241.317V19.8663Z" fill="black"/>
<path d="M255.067 8.14531H246.101V9.74765H249.09V19.8668H252.117V9.74765H255.067V8.14531Z" fill="black"/>
<path d="M262.945 19.8668H266.52L261.793 8.14574H259.409L254.389 19.8668H256.44L257.651 16.8778H261.813L262.945 19.8668ZM261.187 15.2763H258.315L259.8 11.5838L261.187 15.2763Z" fill="black"/>
<path d="M270.711 8.14531H267.683V19.8668H275.438V18.2649H270.711V8.14531Z" fill="black"/>
<path d="M283.566 13.3811C284.582 12.9709 285.227 12.2286 285.227 10.9195C285.227 8.49726 283.039 8.14574 281.105 8.14574H276.807V19.8663H281.769C283.898 19.8663 286.203 18.8118 286.203 16.4477C286.203 14.8264 285.09 13.6351 283.566 13.3811ZM280.637 18.3822H279.836V14.1234H280.637C281.671 14.1234 283.02 14.7876 283.02 16.2135C283.02 17.6395 281.671 18.3822 280.637 18.3822ZM279.836 9.66915H280.089C281.223 9.66915 282.531 9.86497 282.531 11.0955C282.531 12.3067 281.223 12.5999 280.089 12.5999H279.836V9.66915Z" fill="black"/>
<path d="M294.949 19.8668H298.524L293.796 8.14574H291.413L286.393 19.8668H288.444L289.655 16.8778H293.816L294.949 19.8668ZM293.191 15.2763H290.319L291.804 11.5838L293.191 15.2763Z" fill="black"/>
<path d="M308.067 15.3737L302.813 8.14531H299.882V19.8668H301.738V11.5833L307.619 19.8668H309.923V8.14531H308.067V15.3737Z" fill="black"/>
<path d="M317.153 13.1464L321.04 8.14531H318.481L314.887 12.6383V8.14531H311.879V19.8663H314.887V15.1978L318.051 19.8663H321.529L317.153 13.1464Z" fill="black"/>
</svg>
